<svg xmlns="http://www.w3.org/2000/svg" xmlns:xlink="http://www.w3.org/1999/xlink" viewBox="0 0 287.81 53.98"><defs><style>.cls-1{fill:#212121;}.cls-2{fill-rule:evenodd;fill:url(#linear-gradient);}</style><linearGradient id="linear-gradient" x1="27" x2="27" y2="53.98" gradientUnits="userSpaceOnUse"><stop offset="0" stop-color="#19c3c3"/><stop offset="0.18" stop-color="#17c3ba"/><stop offset="0.47" stop-color="#10c2a2"/><stop offset="0.84" stop-color="#05c17a"/><stop offset="1" stop-color="#00c167"/></linearGradient></defs><g id="Layer_2" data-name="Layer 2"><g id="_13_SVG_Full_Color" data-name="13 SVG Full Color"><path class="cls-1" d="M69.32,42.59,83.14,9h8.07l13.63,33.6H97.3l-3.41-8.83H80l-3.45,8.83Zm12.86-14.4h9.6L87,15.81Z"/><path class="cls-1" d="M106.18,35.53V23.1h-5.13V17.58h5.13V11.2l6.58-1.49v7.87h7.1V23.1h-7.1V34.19a3.31,3.31,0,0,0,.77,2.5,3.89,3.89,0,0,0,2.68.72,11.85,11.85,0,0,0,1.73-.12,9.18,9.18,0,0,0,1.78-.46v5.38a17.43,17.43,0,0,1-2.55.55,18.6,18.6,0,0,1-2.54.21c-2.78,0-4.89-.63-6.31-1.89A7,7,0,0,1,106.18,35.53Z"/><path class="cls-1" d="M121,30.11a12.65,12.65,0,0,1,1-5.11,12.82,12.82,0,0,1,2.83-4.13,13.22,13.22,0,0,1,4.25-2.76,14,14,0,0,1,10.46,0,13.22,13.22,0,0,1,4.25,2.76A12.82,12.82,0,0,1,146.67,25a12.88,12.88,0,0,1-2.83,14.33,13.84,13.84,0,0,1-19,0A12.71,12.71,0,0,1,121,30.11Zm13.34,7.25a6.52,6.52,0,0,0,4.9-2.11,7.18,7.18,0,0,0,2-5.14,7.23,7.23,0,0,0-2-5.18,6.72,6.72,0,0,0-9.8,0,7.23,7.23,0,0,0-2,5.18,7.18,7.18,0,0,0,2,5.14A6.52,6.52,0,0,0,134.36,37.36Z"/><path class="cls-1" d="M151,42.59v-25h6.57v1.87a9.87,9.87,0,0,1,3-1.75,10.17,10.17,0,0,1,3.55-.6,9.4,9.4,0,0,1,4.34,1,8.52,8.52,0,0,1,3.2,2.76,9.84,9.84,0,0,1,3.59-2.79,11.13,11.13,0,0,1,4.66-1,9.11,9.11,0,0,1,6.86,2.79A9.83,9.83,0,0,1,189.46,27V42.59h-6.57V28a5.5,5.5,0,0,0-1.28-3.79,4.33,4.33,0,0,0-3.43-1.44,5.73,5.73,0,0,0-2.71.64,6.14,6.14,0,0,0-2.09,1.85c0,.29.07.58.1.87a8.61,8.61,0,0,1,.05.91V42.59H167V28a5.5,5.5,0,0,0-1.27-3.79,4.35,4.35,0,0,0-3.43-1.44,5.86,5.86,0,0,0-2.64.57,6.08,6.08,0,0,0-2,1.68V42.59Z"/><path class="cls-1" d="M204.39,42.59h-6.33l-6.87-25h6.24l4.13,16.18,5-16.18h5.52L217,33.76l4.13-16.18h6.15l-6.92,25h-6.28l-4.85-16Z"/><path class="cls-1" d="M232.9,14.61a3.77,3.77,0,0,1-3.74-3.75,3.75,3.75,0,0,1,7.49,0,3.57,3.57,0,0,1-1.11,2.64A3.57,3.57,0,0,1,232.9,14.61Zm3.31,3v25h-6.57v-25Z"/><path class="cls-1" d="M238.52,39.61l3.26-4.36A19.68,19.68,0,0,0,246,37.38a11.56,11.56,0,0,0,3.93.7,7.37,7.37,0,0,0,3.53-.72,2.16,2.16,0,0,0,1.32-1.92A1.87,1.87,0,0,0,254,33.9a5.25,5.25,0,0,0-2.38-.81l-4.8-.72a10.5,10.5,0,0,1-5.64-2.4,6.37,6.37,0,0,1-1.94-4.85,6.87,6.87,0,0,1,2.83-5.76,12.2,12.2,0,0,1,7.58-2.16A18.06,18.06,0,0,1,255,18a19.26,19.26,0,0,1,5,2.33l-3.17,4.22a20.2,20.2,0,0,0-3.94-1.8,12.35,12.35,0,0,0-3.79-.6,5.45,5.45,0,0,0-2.86.67,2,2,0,0,0-1.08,1.78,1.8,1.8,0,0,0,.8,1.56,6.09,6.09,0,0,0,2.61.79l4.8.72a10.19,10.19,0,0,1,5.64,2.4,6.23,6.23,0,0,1,2,4.75,6.66,6.66,0,0,1-.84,3.29,8.48,8.48,0,0,1-2.28,2.62,11,11,0,0,1-3.45,1.73,14.94,14.94,0,0,1-4.37.62,22.26,22.26,0,0,1-6.38-.89A14.7,14.7,0,0,1,238.52,39.61Z"/><path class="cls-1" d="M286.13,39.47A15,15,0,0,1,276,43.07a14,14,0,0,1-5.3-1,13.35,13.35,0,0,1-4.27-2.73,12.47,12.47,0,0,1-2.83-4.11,12.62,12.62,0,0,1-1-5.11,13,13,0,0,1,1-5.06,12.66,12.66,0,0,1,2.71-4.13,12.49,12.49,0,0,1,4.11-2.76,12.84,12.84,0,0,1,5.06-1,11.92,11.92,0,0,1,4.92,1A12.22,12.22,0,0,1,284.28,21a12.86,12.86,0,0,1,2.6,4.25,15.07,15.07,0,0,1,.93,5.35v1.73H269.19a7,7,0,0,0,2.59,3.79,7.3,7.3,0,0,0,4.51,1.44,8.75,8.75,0,0,0,3.08-.53,6.76,6.76,0,0,0,2.44-1.49Zm-10.85-16.9a5.84,5.84,0,0,0-3.88,1.37,7.08,7.08,0,0,0-2.26,3.67h12.24A7.31,7.31,0,0,0,279.1,24,5.73,5.73,0,0,0,275.28,22.57Z"/><path id="SVGID" class="cls-2" d="M30.89,13.75l0,0a3.39,3.39,0,0,1,.15,4.67L19.49,31.56a5.88,5.88,0,0,0-5.08,10,5.76,5.76,0,0,0,1.53,1.1h0a9.8,9.8,0,1,1-3.25-17l13.56-12a3.39,3.39,0,0,1,4.63.11ZM47.73,35a9.8,9.8,0,1,1-13.08,11.3L17.48,40.6a3.4,3.4,0,0,1-2.23-4.07l0-.05a3.39,3.39,0,0,1,4-2.47L36.38,37.5a5.88,5.88,0,0,0,11.16-.58A5.76,5.76,0,0,0,47.73,35ZM44.42,7.26A9.8,9.8,0,0,1,41.61,17l3.61,17.75a3.4,3.4,0,0,1-2.41,4h-.05a3.38,3.38,0,0,1-4.12-2.21L33.09,19.92a5.88,5.88,0,0,0-7.81-8.61h0A9.8,9.8,0,0,1,44.42,7.26Z"/></g></g></svg>